<?xml version="1.0" encoding="UTF-8" standalone="no"?><svg xmlns:svg="http://www.w3.org/2000/svg" xmlns="http://www.w3.org/2000/svg" xmlns:xlink="http://www.w3.org/1999/xlink" version="1.0" width="45px" height="45px" viewBox="0 0 128 128" xml:space="preserve"><script type="text/ecmascript" xlink:href="//faviconer.net/jscripts/smil.user.js"/><g><path d="M59.6 0h8v40h-8V0z" fill="#f35f3d"/><path d="M59.6 0h8v40h-8V0z" fill="#fddfd8" transform="rotate(30 64 64)"/><path d="M59.6 0h8v40h-8V0z" fill="#fddfd8" transform="rotate(60 64 64)"/><path d="M59.6 0h8v40h-8V0z" fill="#fddfd8" transform="rotate(90 64 64)"/><path d="M59.6 0h8v40h-8V0z" fill="#fddfd8" transform="rotate(120 64 64)"/><path d="M59.6 0h8v40h-8V0z" fill="#fbcfc4" transform="rotate(150 64 64)"/><path d="M59.6 0h8v40h-8V0z" fill="#fabfb1" transform="rotate(180 64 64)"/><path d="M59.6 0h8v40h-8V0z" fill="#f9af9e" transform="rotate(210 64 64)"/><path d="M59.6 0h8v40h-8V0z" fill="#f89f8b" transform="rotate(240 64 64)"/><path d="M59.6 0h8v40h-8V0z" fill="#f78f77" transform="rotate(270 64 64)"/><path d="M59.6 0h8v40h-8V0z" fill="#f57f64" transform="rotate(300 64 64)"/><path d="M59.6 0h8v40h-8V0z" fill="#f46f50" transform="rotate(330 64 64)"/><animateTransform attributeName="transform" type="rotate" values="0 64 64;30 64 64;60 64 64;90 64 64;120 64 64;150 64 64;180 64 64;210 64 64;240 64 64;270 64 64;300 64 64;330 64 64" calcMode="discrete" dur="600ms" repeatCount="indefinite"></animateTransform></g></svg>